<svg viewBox="0 0 64 64" xmlns="http://www.w3.org/2000/svg">
  <!-- bottom bun -->
  <path d="M8,52 Q8,60 16,60 L48,60 Q56,60 56,52 L56,48 L8,48 Z" fill="#d68c3c"/>

  <!-- patty -->
  <rect x="8" y="42" width="48" height="8" rx="3" fill="#5c3a21"/>

  <!-- cheese, drippy edge -->
  <path d="M6,36 L58,36 L58,40 L54,44 L50,40 L46,44 L42,40 L38,44 L34,40 L30,44 L26,40 L22,44 L18,40 L14,44 L10,40 L6,40 Z" fill="#f2b632"/>

  <!-- lettuce, wavy edge peeking out -->
  <path d="M6,32 Q10,28 14,32 Q18,26 22,32 Q26,27 30,32 Q34,26 38,32 Q42,27 46,32 Q50,26 54,32 Q58,29 58,34 L6,34 Z" fill="#6a9a3f"/>

  <!-- top bun -->
  <path d="M10,30 Q10,10 32,8 Q54,10 54,30 Z" fill="#e6a33e"/>

  <!-- sesame seeds -->
  <ellipse cx="22" cy="16" rx="1.8" ry="1" fill="#fff6dd" transform="rotate(-20 22 16)"/>
  <ellipse cx="30" cy="12" rx="1.8" ry="1" fill="#fff6dd" transform="rotate(10 30 12)"/>
  <ellipse cx="38" cy="15" rx="1.8" ry="1" fill="#fff6dd" transform="rotate(-15 38 15)"/>
  <ellipse cx="26" cy="20" rx="1.8" ry="1" fill="#fff6dd" transform="rotate(25 26 20)"/>
  <ellipse cx="34" cy="20" rx="1.8" ry="1" fill="#fff6dd" transform="rotate(-10 34 20)"/>
</svg>